<?xml version="1.0" encoding="UTF-8"?>
<svg id="Layer_1" data-name="Layer 1" xmlns="http://www.w3.org/2000/svg" viewBox="0 0 1619.6 862.23">
  <defs>
    <style>
      .cls-1 {
        fill: #ec2024;
      }

      .cls-2 {
        fill: #ffcc05;
      }
    </style>
  </defs>
  <path d="M511.73,244.64v-81.93h40.24l-.63,8.13h-29.19v30.23h26.91v8.13h-26.91v35.23h-10.42v.2ZM598.46,206.91c0,2.5,0,4.58-.2,6.26-.22,1.88-.42,3.33-.42,4.58h-28.97c.41,6.68,1.66,11.67,4.37,14.8,2.5,3.13,6.26,4.8,11.06,4.8,1.66,0,3.13-.22,4.58-.63,1.25-.42,2.5-.83,3.54-1.46,1.05-.63,1.88-1.05,2.5-1.67s1.25-1.05,1.47-1.25l3.54,6.66c-.41.42-1.03,1.05-1.88,1.67-.83.83-1.88,1.46-3.13,2.3-1.25.83-2.91,1.46-4.99,1.88-1.88.63-4.38.83-7.1.83-3.54,0-6.87-.63-9.59-1.88-2.91-1.25-5.41-3.13-7.29-5.43-2.08-2.49-3.55-5.62-4.58-9.59-1.05-3.74-1.67-8.54-1.67-13.75s.63-9.39,1.67-13.14c1.25-3.75,2.71-6.66,4.58-9.17,1.88-2.3,4.18-4.18,6.88-5.21,2.71-1.25,5.41-1.67,8.34-1.67,5.41,0,9.79,1.67,12.72,5.21,2.91,3.97,4.58,8.96,4.58,15.85M580.33,194.19c-3.35,0-6.05,1.47-8.13,4.18-2.08,2.91-3.33,6.88-3.55,12.3h20.85c0-.42.2-1.05.2-1.67v-2.5c0-3.96-.83-7.09-2.28-9.17-1.67-2.08-3.97-3.13-7.09-3.13M608.67,217.12c0-5.84.83-10.64,2.3-14.38,1.46-3.97,3.54-7.09,5.84-9.39,2.28-2.3,5.01-3.96,8.12-5.01,2.93-1.05,6.05-1.46,8.96-1.46,1.88,0,3.35.2,4.8.41,1.25.22,2.5.63,3.33,1.05v-27.31l9.59-1.03v85.06h-8.76v-6.05h-.2c-.2.42-.63,1.05-1.25,1.88-.63.84-1.46,1.67-2.71,2.5-1.05.84-2.5,1.47-4.18,2.1-1.66.63-3.54.83-5.84.83-2.71,0-5.21-.63-7.71-1.67-2.5-1.03-4.58-2.71-6.26-5.01-1.88-2.28-3.33-5.41-4.37-8.96-1.25-3.96-1.67-8.34-1.67-13.55M631.19,237.55c1.47,0,2.93-.2,3.96-.63,1.25-.41,2.3-.83,3.13-1.46.84-.63,1.67-1.25,2.3-1.88.63-.63,1.05-1.25,1.46-1.67v-35.23c-.83-.63-1.88-1.03-3.13-1.46-1.25-.42-2.5-.63-4.38-.63-2.28,0-4.37.42-6.24,1.05-1.88.83-3.55,2.08-5.01,3.74-1.46,1.67-2.5,3.97-3.33,6.68-.84,2.71-1.25,6.26-1.25,10.22s.41,7.29,1.03,10.01c.63,2.71,1.67,4.79,2.71,6.46,1.25,1.66,2.5,2.71,3.97,3.54,1.46,1.05,3.13,1.25,4.79,1.25M702.7,206.91c0,2.5,0,4.58-.2,6.26-.2,1.88-.42,3.33-.42,4.58h-28.97c.42,6.68,1.66,11.67,4.38,14.8,2.5,3.13,6.24,4.8,11.05,4.8,1.67,0,3.13-.22,4.58-.63,1.25-.42,2.5-.83,3.55-1.46,1.03-.63,1.88-1.05,2.5-1.67.63-.63,1.25-1.05,1.46-1.25l3.55,6.66c-.42.42-1.05,1.05-1.88,1.67-.84.83-1.88,1.46-3.13,2.3-1.25.83-2.93,1.46-5.01,1.88-1.88.63-4.38.83-7.09.83-3.55,0-6.88-.63-9.59-1.88-2.93-1.25-5.43-3.13-7.31-5.43-2.08-2.49-3.54-5.62-4.58-9.59-1.05-3.74-1.67-8.54-1.67-13.75s.63-9.39,1.67-13.14c1.25-3.75,2.71-6.66,4.58-9.17,1.88-2.3,4.18-4.18,6.88-5.21,2.71-1.25,5.43-1.67,8.34-1.67,5.43,0,9.79,1.67,12.72,5.21,3.13,3.97,4.58,8.96,4.58,15.85M684.77,194.19c-3.33,0-6.04,1.47-8.13,4.18-2.08,2.91-3.33,6.88-3.54,12.3h20.85c0-.42.2-1.05.2-1.67v-2.5c0-3.96-.83-7.09-2.3-9.17-1.88-2.08-4.16-3.13-7.09-3.13M740.65,196.27c-.22-.2-.84-.41-1.47-.61-.83-.22-1.88-.42-3.13-.42-2.91,0-5.41.83-7.09,2.5-1.66,1.66-2.91,3.33-3.54,5.21v41.69h-9.59v-56.91h8.76v7.71h.2c.41-1.03.83-2.28,1.46-3.33.63-1.05,1.46-2.08,2.3-2.93,1.03-.83,2.08-1.46,3.33-1.88,1.25-.41,2.93-.63,4.58-.63,1.25,0,2.5.22,3.33.42.84.2,1.47.42,1.88.63l-1.03,8.54ZM746.27,230.26c0-3.35.63-6.05,1.88-8.34,1.25-2.3,2.92-3.97,5.01-5.43,2.1-1.46,4.58-2.28,7.51-2.91,2.92-.63,6.04-.84,9.17-.84h2.93v-5.41c0-4.8-.83-8.13-2.5-10.01-1.67-1.88-4.18-2.71-7.09-2.71s-5.21.63-7.09,1.88c-1.88,1.25-3.33,2.28-4.58,3.33l-3.97-6.46c.63-.63,1.47-1.25,2.5-2.08,1.05-.84,2.3-1.47,3.55-2.3,1.46-.63,3.13-1.25,4.79-1.88,1.88-.42,3.97-.63,6.26-.63,5.84,0,10.22,1.67,13.34,4.8,2.93,3.33,4.58,8.54,4.58,15.63v26.06c0,2.5,0,4.79.22,7.09.2,2.3.41,3.96.41,4.58h-9.17l-.42-6.26h-.2c-.42.63-.83,1.47-1.46,2.5-.63.84-1.47,1.67-2.3,2.5-1.05.84-2.08,1.47-3.55,1.88-1.24.63-2.91.84-4.79.84-2.08,0-4.18-.42-6.04-1.25-1.88-.84-3.55-1.88-4.8-3.35-1.46-1.46-2.5-3.13-3.13-4.99-.83-1.88-1.05-3.97-1.05-6.26M763.36,237.98c1.25,0,2.5-.22,3.55-.63,1.03-.42,1.88-.83,2.71-1.46.83-.63,1.46-1.25,1.88-1.88.42-.63,1.05-1.25,1.46-1.67v-12.52l-3.13.22c-4.58.2-8.12,1.03-10.42,2.28-2.3,1.47-3.55,3.75-3.55,6.88,0,2.92.63,5.21,2.1,6.68,1.25,1.46,3.13,2.08,5.41,2.08M806.32,231.52c0,2.28.41,3.96,1.03,5.01.63,1.03,1.88,1.46,3.55,1.46.83,0,1.66,0,2.28-.22.63-.2,1.05-.41,1.47-.41l.83,7.09c-.42.2-1.25.63-2.71,1.05-1.25.41-2.93.63-5.01.63-3.33,0-5.84-1.05-7.93-2.93-1.88-1.88-2.91-5.43-2.91-10.64v-71.51l9.59-1.03v71.51h-.2ZM919.32,162.92v81.94h-10.01v-52.96c0-2.1,0-3.97.2-5.43,0-1.66.22-2.71.22-3.75h-.42c-.42,1.88-1.25,4.8-2.5,8.76-1.25,4.18-2.71,8.54-4.18,13.14l-13.55,40.02h-8.13l-13.55-40.02c-1.66-4.6-2.91-8.96-4.16-13.14-1.25-4.18-2.1-7.09-2.5-8.76h-.42c0,1.05.2,2.3.2,3.75,0,1.67.22,3.33.22,5.43v52.96h-10.01v-81.94h11.47l19.38,56.51c.84,2.71,1.67,5.21,2.3,7.71.63,2.5,1.05,4.58,1.25,6.46h.2c0-1.88.42-3.96,1.05-6.46.63-2.5,1.46-5.01,2.3-7.51l19.38-56.71h11.26ZM945.79,244.64h-9.59v-56.91h9.59v56.91ZM940.99,173.98c-1.86,0-3.54-.63-4.79-1.88-1.25-1.25-1.88-2.93-1.88-5.01,0-1.88.63-3.55,1.88-4.8,1.25-1.25,2.71-1.88,4.79-1.88,1.88,0,3.55.63,4.6,1.88,1.25,1.25,1.88,2.93,1.88,4.8,0,2.08-.63,3.75-1.88,5.01-1.25,1.25-2.72,1.88-4.6,1.88M991.46,244.64v-36.48c0-4.79-.84-8.34-2.5-10.42-1.67-2.08-4.18-3.13-7.51-3.13-2.93,0-5.21.63-7.09,2.08-1.88,1.46-3.33,2.71-4.58,4.18v43.99h-9.59v-56.93h8.75v6.48h.22c.2-.42.83-1.25,1.46-2.1.83-.83,1.88-1.88,3.13-2.71,1.25-.83,2.71-1.46,4.58-2.3,1.67-.63,3.75-1.03,5.84-1.03,2.5,0,4.8.41,6.88,1.03,2.08.84,3.75,1.88,5.21,3.55,1.46,1.67,2.5,3.75,3.33,6.46.84,2.71,1.25,5.84,1.25,9.79v37.33h-9.37v.2ZM1025.22,244.64h-9.59v-56.91h9.59v56.91ZM1020.43,173.98c-1.88,0-3.55-.63-4.8-1.88-1.25-1.25-1.88-2.93-1.88-5.01,0-1.88.63-3.55,1.88-4.8,1.25-1.25,2.72-1.88,4.8-1.88,1.88,0,3.54.63,4.58,1.88,1.25,1.25,1.88,2.93,1.88,4.8,0,2.08-.63,3.75-1.88,5.01-1.25,1.25-2.71,1.88-4.58,1.88M1064.42,199.19c-.63-.63-1.88-1.67-3.55-2.92-1.66-1.24-3.75-1.86-6.46-1.86-2.5,0-4.38.63-5.84,1.86-1.25,1.25-2.08,2.72-2.08,4.18,0,2.08.63,3.96,1.88,5.21,1.25,1.46,3.13,2.93,5.62,4.38l3.55,2.08c3.96,2.3,6.88,4.8,9.17,7.51,2.3,2.71,3.35,6.05,3.35,10.22,0,4.58-1.47,8.34-4.6,11.47-3.11,3.13-7.71,4.58-13.55,4.58-2.28,0-4.38-.2-6.04-.63-1.67-.41-3.33-1.03-4.58-1.66-1.25-.63-2.3-1.25-3.35-2.1-.83-.83-1.66-1.46-2.08-2.08l4.58-7.51c.42.42,1.05,1.05,1.67,1.67.63.63,1.46,1.25,2.5,1.88,1.03.63,2.08,1.05,3.13,1.46,1.25.42,2.5.63,4.16.63,2.93,0,5.01-.63,6.46-1.88,1.47-1.25,2.3-2.71,2.3-4.58,0-1.25-.2-2.5-.63-3.55-.42-1.03-.83-1.86-1.67-2.71-.63-.83-1.66-1.46-2.71-2.28-1.05-.63-2.28-1.47-3.54-2.3l-3.55-2.3c-3.55-2.28-6.26-4.79-8.34-7.29-2.08-2.5-3.13-5.84-3.13-9.79,0-2.1.42-4.18,1.25-5.84.83-1.88,2.08-3.35,3.55-4.6,1.46-1.25,3.33-2.28,5.21-3.13,2.08-.83,4.16-1.03,6.46-1.03s4.16.2,5.63.63c1.66.41,2.91,1.03,4.16,1.66,1.25.63,2.08,1.25,2.92,2.1.83.63,1.46,1.25,1.88,1.66l-3.75,6.88ZM1105.69,195.66h-12.5v31.48c0,3.96.42,6.88,1.46,8.34,1.05,1.46,2.71,2.28,5.21,2.28,1.47,0,2.72-.2,3.75-.63,1.05-.41,1.88-.83,2.3-1.03l1.25,7.71c-.42.42-1.25.83-2.92,1.46-1.46.63-3.54,1.05-6.04,1.05-5.01,0-8.56-1.46-11.06-4.18-2.49-2.71-3.74-7.29-3.74-13.55v-32.93h-6.88v-6.48l6.88-1.46,1.03-15.85h8.56v15.85h13.55l-.84,7.93ZM1141.77,196.27c-.2-.2-.83-.41-1.46-.61-.84-.22-1.88-.42-3.13-.42-2.93,0-5.43.83-7.09,2.5-1.67,1.66-2.93,3.33-3.55,5.21v41.69h-9.59v-56.91h8.76v7.71h.2c.42-1.03.83-2.28,1.46-3.33.63-1.05,1.47-2.08,2.3-2.93.83-.83,2.08-1.46,3.33-1.88,1.25-.41,2.93-.63,4.58-.63,1.25,0,2.5.22,3.35.42.83.2,1.46.42,1.88.63l-1.05,8.54ZM1189.09,187.73l-17.72,60.25c-2.08,6.88-4.58,12.31-7.49,15.85-2.93,3.55-7.31,5.43-12.94,5.43-1.25,0-2.08-.22-2.91-.42-.84-.2-1.25-.42-1.67-.63v-8.34c.42.2.83.42,1.46.63.63.2,1.47.2,2.5.2,3.35,0,6.05-1.03,7.71-3.13,1.67-2.08,3.35-5.41,4.6-9.79l.83-2.91-18.35-56.93h10.43l8.96,31.49c.83,3.33,1.66,6.26,2.28,9.17.63,2.71,1.25,5.43,1.25,7.51h.2c.22-2.3.63-4.8,1.05-7.51.63-2.71,1.25-5.84,2.3-8.96l8.12-31.7h9.39v-.2ZM533.61,315.32h-11.67v49.2h-9.59v-49.2h-6.66v-6.46l6.87-1.25v-11.47c0-3.13.42-5.84,1.25-7.93.84-2.28,2.1-3.96,3.55-5.41,1.46-1.46,3.13-2.5,5.01-3.13,1.88-.63,3.96-1.05,6.04-1.05s3.75.22,5.21.84c1.47.63,2.3,1.03,2.93,1.25l-2.08,7.92c-.42-.42-1.25-.63-2.1-1.03-.83-.42-1.88-.63-3.11-.63-2.3,0-3.97.63-5.22,2.08-1.25,1.46-1.88,3.96-1.88,7.92v10.22h12.72l-1.25,8.13ZM539.46,335.96c0-5.21.61-9.79,1.86-13.55,1.25-3.75,2.93-6.88,5.01-9.39,2.1-2.5,4.58-4.16,7.31-5.41,2.71-1.25,5.63-1.67,8.75-1.67s6.05.63,8.76,1.67c2.71,1.25,5.01,2.91,7.09,5.41,1.88,2.5,3.55,5.43,4.58,9.39,1.25,3.75,1.67,8.34,1.67,13.55s-.63,9.81-1.88,13.56c-1.25,3.74-2.91,6.87-5.01,9.37-2.08,2.5-4.58,4.18-7.29,5.21-2.71,1.05-5.63,1.67-8.76,1.67s-6.04-.63-8.76-1.67c-2.71-1.03-4.99-2.91-7.09-5.21-1.88-2.5-3.54-5.41-4.58-9.17-1.05-3.75-1.66-8.34-1.66-13.77M574.48,335.96c0-7.49-1.03-13.13-3.33-16.47-2.28-3.54-5.21-5.21-9.17-5.21s-7.09,1.67-9.18,5.21c-2.08,3.55-3.33,8.98-3.33,16.47s1.05,13.14,3.33,16.47c2.3,3.33,5.22,5.01,9.18,5.01s7.09-1.67,9.17-5.01c2.3-3.33,3.33-8.96,3.33-16.47M621.6,315.95c-.2-.2-.83-.42-1.46-.63-.83-.2-1.88-.42-3.13-.42-2.93,0-5.41.84-7.09,2.5-1.67,1.67-2.93,3.33-3.55,5.21v41.71h-9.59v-56.91h8.76v7.71h.2c.42-1.05.84-2.3,1.47-3.35.63-1.03,1.46-2.08,2.28-2.91,1.05-.83,2.1-1.46,3.33-1.88,1.25-.42,2.93-.63,4.6-.63,1.25,0,2.5.2,3.33.42.83.2,1.46.41,1.88.63l-1.05,8.54ZM695.19,290.71h-29.18v28.36h26.89v8.13h-26.89v28.77h32.1l-.63,8.54h-41.91v-81.93h40.24l-.63,8.12ZM740.65,318.45c-.22-.2-.63-.63-1.05-1.05-.42-.41-1.25-1.03-1.88-1.46-.83-.42-1.67-.83-2.91-1.25-1.05-.42-2.3-.63-3.75-.63-2.1,0-3.97.42-5.85,1.05-1.86.83-3.33,1.88-4.58,3.54-1.25,1.67-2.28,3.75-3.13,6.46-.83,2.72-1.03,5.84-1.03,9.59,0,4.18.41,7.71,1.03,10.64.63,2.93,1.67,5.21,2.72,6.88,1.25,1.66,2.71,2.91,4.38,3.75,1.66.83,3.54,1.03,5.62,1.03,2.93,0,5.21-.41,6.68-1.46,1.46-1.05,2.71-1.88,3.33-2.5l3.96,6.68c-.41.41-1.03,1.03-1.66,1.66-.84.63-1.67,1.25-2.93,1.88-1.25.63-2.71,1.25-4.38,1.67-1.66.41-3.75.63-5.84.63-3.13,0-6.04-.42-8.96-1.47-2.71-1.03-5.21-2.71-7.29-4.99-2.1-2.3-3.75-5.43-4.8-9.18-1.25-3.75-1.88-8.54-1.88-14.17s.63-10.01,2.08-13.97c1.47-3.75,3.35-6.88,5.63-9.17,2.3-2.3,4.8-3.96,7.71-5.01,2.72-1.05,5.63-1.67,8.56-1.67,2.08,0,3.96.22,5.62.63,1.67.42,2.93.84,4.18,1.47,1.25.63,2.08,1.24,2.93,1.86.83.63,1.46,1.25,1.88,1.67l-4.38,6.88ZM751.27,335.96c0-5.21.63-9.79,1.88-13.55,1.25-3.75,2.93-6.88,5.01-9.39,2.08-2.5,4.58-4.16,7.31-5.41,2.71-1.25,5.62-1.67,8.75-1.67s6.05.63,8.76,1.67c2.71,1.25,5.01,2.91,7.09,5.41,1.88,2.5,3.55,5.43,4.58,9.39,1.25,3.75,1.67,8.34,1.67,13.55s-.63,9.81-1.88,13.56c-1.25,3.74-2.93,6.87-5.01,9.37-2.08,2.5-4.58,4.18-7.29,5.21-2.72,1.05-5.63,1.67-8.76,1.67s-6.05-.63-8.76-1.67c-2.71-1.03-5.01-2.91-7.09-5.21-1.88-2.5-3.54-5.41-4.58-9.17-1.05-3.75-1.67-8.34-1.67-13.77M786.3,335.96c0-7.49-1.03-13.13-3.33-16.47-2.3-3.54-5.21-5.21-9.17-5.21s-7.1,1.67-9.18,5.21c-2.08,3.55-3.33,8.98-3.33,16.47s1.05,13.14,3.33,16.47c2.3,3.33,5.21,5.01,9.18,5.01s7.09-1.67,9.17-5.01c2.3-3.33,3.33-8.96,3.33-16.47M839.46,364.52v-36.69c0-4.8-.83-8.35-2.49-10.43-1.67-2.08-4.18-3.13-7.51-3.13-2.93,0-5.21.63-7.09,2.1-1.88,1.46-3.35,2.71-4.6,4.16v43.99h-9.59v-56.91h8.76v6.46h.22c.2-.42.83-1.25,1.46-2.08.83-.84,1.88-1.88,3.13-2.72,1.25-.83,2.71-1.46,4.58-2.28,1.66-.63,3.75-1.05,5.84-1.05,2.5,0,4.8.42,6.88,1.05,2.08.83,3.75,1.88,5.21,3.54,1.46,1.67,2.5,3.75,3.33,6.48.83,2.71,1.25,5.84,1.25,9.79v37.73h-9.39ZM860.94,335.96c0-5.21.63-9.79,1.88-13.55,1.25-3.75,2.93-6.88,5.01-9.39,2.08-2.5,4.58-4.16,7.29-5.41,2.72-1.25,5.63-1.67,8.76-1.67s6.04.63,8.76,1.67c2.71,1.25,5.01,2.91,7.09,5.41,1.88,2.5,3.54,5.43,4.58,9.39,1.25,3.75,1.67,8.34,1.67,13.55s-.63,9.81-1.88,13.56c-1.25,3.74-2.93,6.87-5.01,9.37-2.08,2.5-4.58,4.18-7.31,5.21-2.71,1.05-5.62,1.67-8.75,1.67s-6.05-.63-8.76-1.67c-2.71-1.03-5.01-2.91-7.09-5.21-1.88-2.5-3.55-5.41-4.58-9.17-1.25-3.75-1.67-8.34-1.67-13.77M895.97,335.96c0-7.49-1.05-13.13-3.33-16.47-2.3-3.54-5.21-5.21-9.18-5.21s-7.09,1.67-9.17,5.21c-2.08,3.55-3.33,8.98-3.33,16.47s1.03,13.14,3.33,16.47c2.3,3.33,5.21,5.01,9.17,5.01s7.09-1.67,9.18-5.01c2.08-3.33,3.33-8.96,3.33-16.47M947.87,364.52v-36.69c0-4.6-.63-8.13-2.08-10.01-1.25-2.08-3.55-3.13-6.46-3.13-1.67,0-2.93.2-4.18.63-1.25.42-2.28.83-3.33,1.46-1.05.63-1.88,1.25-2.5,1.88-.63.63-1.25,1.25-1.88,1.88v43.99h-9.59v-56.91h8.76v6.46h.2c.42-.63,1.05-1.46,1.88-2.3.84-.83,1.88-1.88,2.93-2.71,1.25-.83,2.5-1.46,4.16-2.08,1.67-.63,3.35-.83,5.43-.83,6.46,0,11.05,2.5,13.75,7.49.63-.83,1.25-1.66,2.3-2.5,1.05-.83,2.08-1.66,3.33-2.49,1.25-.84,2.71-1.47,4.18-1.88,1.66-.42,3.33-.63,5.21-.63,11.47,0,17.3,6.66,17.3,20.21v38.16h-9.59v-36.69c0-4.6-.83-8.13-2.5-10.01-1.67-2.08-4.16-3.13-7.29-3.13-2.72,0-5.01.63-6.68,1.88-1.88,1.25-3.13,2.5-4.16,3.75.2.83.2,1.88.41,2.71,0,1.05.22,2.08.22,3.13v38.36h-9.81ZM1011.47,364.52h-9.59v-56.91h9.59v56.91ZM1006.67,293.64c-1.88,0-3.54-.63-4.79-1.88-1.25-1.25-1.88-2.92-1.88-5.01,0-1.88.63-3.54,1.88-4.79,1.25-1.25,2.71-1.88,4.79-1.88,1.88,0,3.55.63,4.6,1.88,1.25,1.25,1.86,2.91,1.86,4.79,0,2.08-.61,3.75-1.86,5.01-1.25,1.25-2.72,1.88-4.6,1.88M1057.74,318.45c-.2-.2-.63-.63-1.03-1.05-.42-.41-1.25-1.03-1.88-1.46-.84-.42-1.67-.83-2.93-1.25-1.03-.42-2.28-.63-3.75-.63-2.08,0-3.96.42-5.84,1.05-1.88.83-3.33,1.88-4.58,3.54-1.25,1.67-2.3,3.75-3.13,6.46-.83,2.72-1.05,5.84-1.05,9.59,0,4.18.42,7.71,1.05,10.64.63,2.93,1.67,5.21,2.71,6.88,1.25,1.66,2.72,2.91,4.38,3.75,1.67.83,3.55,1.03,5.63,1.03,2.93,0,5.21-.41,6.67-1.46,1.47-1.05,2.72-1.88,3.35-2.5l3.96,6.68c-.42.41-1.05,1.03-1.67,1.66-.83.63-1.66,1.25-2.91,1.88-1.25.63-2.72,1.25-4.38,1.67-1.67.41-3.75.63-5.84.63-3.13,0-6.05-.42-8.96-1.47-2.72-1.03-5.21-2.71-7.31-4.99-2.08-2.3-3.75-5.43-4.79-9.18-1.25-3.75-1.88-8.54-1.88-14.17s.63-10.01,2.08-13.97c1.46-3.75,3.33-6.88,5.63-9.17,2.3-2.3,4.79-3.96,7.71-5.01,2.71-1.05,5.63-1.67,8.54-1.67,2.1,0,3.97.22,5.63.63,1.67.42,2.93.84,4.18,1.47,1.25.63,2.08,1.24,2.91,1.86.84.63,1.47,1.25,1.88,1.67l-4.38,6.88ZM1149.48,364.52h-11.47l-7.29-26.27h-24.81l-7.51,26.27h-10.42l26.69-81.93h8.12l26.69,81.93ZM1128.63,330.33l-6.46-22.51c-.83-2.91-1.66-5.84-2.28-8.54-.63-2.71-1.05-5.01-1.05-6.88h-.2c0,1.88-.42,3.96-1.05,6.66-.63,2.72-1.46,5.43-2.28,8.56l-6.68,22.72h20.01ZM1181.59,315.32h-11.67v49.2h-9.59v-49.2h-6.88v-6.46l6.88-1.25v-11.47c0-3.13.42-5.84,1.25-7.93.83-2.28,2.08-3.96,3.55-5.41,1.46-1.46,3.11-2.5,4.99-3.13,1.88-.63,3.97-1.05,6.05-1.05s3.75.22,5.21.84c1.46.63,2.3,1.03,2.93,1.25l-2.1,7.92c-.41-.42-1.25-.63-2.08-1.03-.83-.42-1.88-.63-3.13-.63-2.28,0-3.96.63-5.21,2.08-1.25,1.46-1.88,3.96-1.88,7.92v10.22h12.72l-1.05,8.13ZM1215.16,315.32h-11.67v49.2h-9.59v-49.2h-6.88v-6.46l6.88-1.25v-11.47c0-3.13.41-5.84,1.25-7.93.83-2.28,2.08-3.96,3.54-5.41,1.46-1.46,3.13-2.5,5.01-3.13,1.88-.63,3.96-1.05,6.04-1.05s3.75.22,5.22.84c1.46.63,2.28,1.03,2.91,1.25l-2.08,7.92c-.42-.42-1.25-.63-2.08-1.03-.84-.42-1.88-.63-3.13-.63-2.3,0-3.96.63-5.21,2.08-1.25,1.46-1.88,3.96-1.88,7.92v10.22h12.72l-1.05,8.13ZM1220.57,349.93c0-3.33.63-6.04,1.88-8.34,1.25-2.28,2.92-3.96,5.01-5.41,2.08-1.47,4.58-2.3,7.51-2.93,2.92-.63,6.04-.83,9.17-.83h2.93v-5.43c0-4.79-.83-8.13-2.5-10-1.67-1.88-4.18-2.72-7.09-2.72s-5.21.63-7.09,1.88c-1.88,1.25-3.33,2.3-4.58,3.33l-3.97-6.46c.63-.63,1.47-1.25,2.5-2.08,1.05-.83,2.3-1.46,3.55-2.28,1.46-.63,3.13-1.25,4.79-1.88,1.88-.42,3.97-.63,6.26-.63,5.84,0,10.22,1.66,13.34,4.79,2.93,3.33,4.58,8.54,4.58,15.64v26.05c0,2.5,0,4.8.22,7.1.2,2.28.41,3.96.41,4.58h-9.17l-.42-6.26c-.41.63-.83,1.46-1.46,2.5-.63.83-1.46,1.66-2.3,2.5-1.03.83-2.08,1.46-3.54,1.88-1.25.63-2.93.83-4.8.83-2.08,0-4.16-.42-6.04-1.25-1.88-.83-3.55-1.88-4.8-3.33-1.46-1.47-2.5-3.13-3.13-5.01-.83-1.88-1.25-3.96-1.25-6.26M1237.89,357.64c1.24,0,2.49-.2,3.54-.63,1.05-.41,1.88-.83,2.71-1.46.84-.63,1.47-1.25,1.88-1.88.42-.63,1.05-1.25,1.47-1.67v-12.5l-3.13.2c-4.6.2-8.13,1.05-10.43,2.3-2.28,1.46-3.54,3.75-3.54,6.88,0,2.91.63,5.21,2.08,6.66,1.25,1.46,2.93,2.08,5.43,2.08M1281.04,364.52h-9.59v-56.91h9.59v56.91ZM1276.25,293.64c-1.88,0-3.55-.63-4.8-1.88-1.25-1.25-1.88-2.92-1.88-5.01,0-1.88.63-3.54,1.88-4.79,1.25-1.25,2.71-1.88,4.8-1.88,1.88,0,3.54.63,4.58,1.88,1.25,1.25,1.88,2.91,1.88,4.79,0,2.08-.63,3.75-1.88,5.01-1.25,1.25-2.71,1.88-4.58,1.88M1320.65,315.95c-.2-.2-.83-.42-1.46-.63-.83-.2-1.88-.42-3.13-.42-2.93,0-5.43.84-7.09,2.5-1.67,1.67-2.93,3.33-3.55,5.21v41.71h-9.59v-56.91h8.76v7.71h.2c.42-1.05.84-2.3,1.47-3.35.63-1.03,1.46-2.08,2.28-2.91,1.05-.83,2.08-1.46,3.33-1.88,1.25-.42,2.93-.63,4.6-.63,1.25,0,2.5.2,3.33.42.83.2,1.46.41,1.88.63l-1.05,8.54ZM1354.22,319.08c-.63-.63-1.88-1.67-3.55-2.93-1.66-1.25-3.75-1.88-6.46-1.88-2.5,0-4.38.63-5.84,1.88-1.25,1.25-2.08,2.71-2.08,4.18,0,2.08.63,3.96,1.88,5.21,1.25,1.46,3.13,2.93,5.62,4.38l3.55,2.08c3.96,2.3,6.88,4.8,9.17,7.51,2.3,2.71,3.35,6.04,3.35,10.22,0,4.58-1.47,8.34-4.6,11.47-3.13,3.13-7.71,4.58-13.55,4.58-2.28,0-4.38-.2-6.04-.63-1.67-.42-3.35-1.05-4.58-1.67-1.25-.63-2.3-1.25-3.35-2.08-.83-.83-1.66-1.46-2.08-2.08l4.58-7.51c.42.42,1.05,1.05,1.67,1.67.63.63,1.46,1.25,2.5,1.88,1.03.63,2.08,1.03,3.13,1.46,1.25.42,2.5.63,4.16.63,2.93,0,5.01-.63,6.46-1.88,1.47-1.25,2.3-2.71,2.3-4.58,0-1.25-.2-2.5-.63-3.55-.42-1.03-.83-1.88-1.67-2.71-.63-.83-1.66-1.46-2.71-2.3-1.05-.63-2.3-1.46-3.55-2.28l-3.54-2.3c-3.55-2.28-6.26-4.79-8.34-7.29-2.08-2.5-3.13-5.84-3.13-9.81,0-2.08.42-4.16,1.25-5.84.83-1.88,2.08-3.33,3.54-4.58,1.47-1.25,3.35-2.28,5.22-3.13,2.08-.83,4.16-1.03,6.46-1.03s4.16.2,5.63.63c1.66.41,2.91,1.03,4.16,1.66,1.25.63,2.08,1.25,2.92,2.08.83.63,1.46,1.25,1.88,1.67l-3.75,6.88ZM506.52,469.61c0-3.35.63-6.05,1.88-8.34,1.25-2.3,2.91-3.97,5.01-5.43,2.08-1.46,4.58-2.3,7.49-2.93,2.92-.61,6.05-.83,9.18-.83h2.91v-5.41c0-4.8-.83-8.13-2.5-10.01-1.66-1.88-4.16-2.71-7.09-2.71s-5.21.63-7.09,1.88c-1.88,1.25-3.33,2.28-4.58,3.33l-3.96-6.46c.63-.63,1.46-1.25,2.5-2.08,1.03-.84,2.28-1.47,3.54-2.3,1.25-.83,3.13-1.25,4.8-1.88,1.88-.42,3.96-.63,6.26-.63,5.84,0,10.22,1.67,13.34,4.8,2.91,3.33,4.58,8.54,4.58,15.63v26.06c0,2.5,0,4.79.2,7.09.2,2.3.42,3.96.42,4.58h-9.18l-.41-6.26h-.22c-.41.63-.83,1.47-1.46,2.5-.63.84-1.46,1.67-2.3,2.5-1.03.83-2.08,1.46-3.54,1.88-1.25.63-2.93.83-4.8.83-2.08,0-4.16-.41-6.04-1.25-1.88-.83-3.55-1.86-4.8-3.33-1.46-1.46-2.49-3.13-3.11-5.01-.84-1.88-1.05-3.96-1.05-6.24M523.61,477.32c1.25,0,2.5-.22,3.54-.63,1.05-.42,1.88-.84,2.72-1.47.83-.63,1.46-1.25,1.86-1.88.42-.61,1.05-1.24,1.47-1.66v-12.52l-3.13.22c-4.58.2-8.13,1.03-10.43,2.28-2.28,1.46-3.54,3.75-3.54,6.88,0,2.93.63,5.21,2.08,6.66,1.25,1.47,3.13,2.1,5.43,2.1M588.24,484.19v-36.69c0-4.8-.83-8.34-2.5-10.42-1.67-2.1-4.18-3.13-7.51-3.13-2.91,0-5.21.63-7.09,2.08-1.88,1.46-3.33,2.71-4.58,4.18v43.98h-9.59v-56.91h8.76v6.46h.2c.2-.41.83-1.25,1.46-2.08.84-.83,1.88-1.88,3.13-2.71s2.71-1.46,4.58-2.3c1.67-.63,3.75-1.03,5.85-1.03,2.49,0,4.79.41,6.87,1.03,2.1.84,3.75,1.88,5.21,3.55,1.47,1.66,2.5,3.75,3.35,6.46.83,2.71,1.25,5.84,1.25,9.79v37.33h-9.39v.41ZM609.5,456.47c0-5.84.84-10.64,2.3-14.38,1.46-3.97,3.54-7.1,5.84-9.39,2.3-2.3,5.01-3.96,8.13-5.01,2.91-1.05,6.04-1.46,8.96-1.46,1.88,0,3.33.2,4.79.41,1.25.22,2.5.63,3.33,1.05v-27.31l9.6-1.03v85.06h-8.76v-6.05h-.22c-.2.42-.63,1.05-1.24,1.88-.63.84-1.47,1.67-2.72,2.5-1.03.83-2.5,1.46-4.16,2.08-1.67.63-3.55.84-5.84.84-2.72,0-5.22-.63-7.71-1.67-2.5-1.03-4.6-2.71-6.26-5.01-1.88-2.28-3.35-5.41-4.38-8.96-1.05-3.75-1.67-8.34-1.67-13.55M632.03,477.1c1.46,0,2.91-.2,3.96-.63,1.25-.41,2.28-.83,3.13-1.46.83-.63,1.66-1.25,2.28-1.88.63-.63,1.05-1.25,1.46-1.66v-35.25c-.83-.63-1.86-1.03-3.11-1.46-1.25-.42-2.5-.63-4.38-.63-2.3,0-4.38.42-6.26,1.05-1.88.83-3.55,2.08-5.01,3.75-1.46,1.66-2.5,3.96-3.33,6.66-.83,2.71-1.25,6.26-1.25,10.22s.42,7.29,1.05,10.01c.63,2.71,1.66,4.79,2.71,6.46,1.25,1.66,2.5,2.71,3.96,3.54,1.67.84,3.13,1.25,4.8,1.25M733.77,410.39h-29.19v28.35h26.89v8.13h-26.89v28.77h32.1l-.63,8.54h-41.9v-81.93h40.24l-.63,8.13ZM779.63,484.19v-36.69c0-4.8-.84-8.34-2.5-10.42-1.67-2.1-4.18-3.13-7.51-3.13-2.93,0-5.21.63-7.09,2.08-1.88,1.46-3.33,2.71-4.58,4.18v43.98h-9.59v-56.91h8.75v6.46h.22c.2-.41.83-1.25,1.46-2.08.83-.83,1.88-1.88,3.13-2.71,1.25-.83,2.71-1.46,4.58-2.3,1.67-.63,3.75-1.03,5.84-1.03,2.5,0,4.8.41,6.88,1.03,2.08.84,3.75,1.88,5.21,3.55,1.47,1.66,2.5,3.75,3.33,6.46.84,2.71,1.25,5.84,1.25,9.79v37.33h-9.37v.41ZM840.3,446.45c0,2.5,0,4.6-.22,6.26-.2,1.88-.41,3.33-.41,4.58h-28.99c.42,6.68,1.67,11.69,4.38,14.81,2.5,3.11,6.26,4.79,11.06,4.79,1.66,0,3.11-.2,4.58-.63,1.25-.42,2.5-.83,3.54-1.46,1.05-.63,1.88-1.05,2.5-1.67.63-.63,1.25-1.03,1.46-1.25l3.55,6.68c-.42.41-1.05,1.03-1.88,1.66-.83.84-1.88,1.47-3.13,2.3-1.25.83-2.91,1.46-5.01,1.88-1.88.63-4.37.83-7.09.83-3.54,0-6.87-.63-9.59-1.88-2.91-1.25-5.41-3.13-7.29-5.41-2.08-2.5-3.55-5.63-4.58-9.59-1.05-3.75-1.67-8.56-1.67-13.77s.63-9.39,1.67-13.13c1.25-3.75,2.71-6.68,4.58-9.18,1.88-2.5,4.16-4.16,6.88-5.21,2.71-1.25,5.41-1.67,8.34-1.67,5.41,0,9.79,1.67,12.72,5.22,2.91,3.74,4.58,8.96,4.58,15.83M822.16,433.53c-3.33,0-6.04,1.46-8.12,4.18-2.1,2.91-3.35,6.87-3.55,12.3h20.85c0-.42.2-1.05.2-1.67v-2.5c0-3.96-.83-7.09-2.3-9.17-1.86-2.08-4.16-3.13-7.09-3.13M878.04,435.61c-.2-.2-.83-.41-1.46-.63-.84-.2-1.88-.41-3.13-.41-2.92,0-5.43.83-7.09,2.5-1.67,1.66-2.93,3.33-3.55,5.21v41.69h-9.59v-56.91h8.76v7.71h.2c.42-1.05.83-2.3,1.46-3.33.63-1.05,1.47-2.08,2.3-2.93,1.05-.83,2.08-1.46,3.33-1.88,1.25-.41,2.93-.63,4.58-.63,1.25,0,2.5.22,3.35.42.83.2,1.46.42,1.88.63l-1.05,8.54ZM927.44,434.58h-7.09c1.88,2.91,2.71,6.46,2.71,10.22,0,2.91-.41,5.63-1.46,8.12-1.05,2.5-2.28,4.38-4.16,6.05-1.88,1.67-3.97,2.93-6.26,3.75-2.5.83-5.01,1.25-7.71,1.25h-1.47c-.41,0-1.03,0-1.46-.22-1.03.42-1.88,1.05-2.91,1.88-1.05.84-1.47,2.1-1.47,3.55,0,1.25.42,2.08,1.47,2.93.83.83,2.28,1.03,4.37,1.03h7.31c2.71,0,5.21.2,7.51.83,2.28.63,4.37,1.47,6.04,2.72,1.67,1.25,3.13,2.71,3.96,4.58,1.05,1.88,1.47,4.16,1.47,6.88,0,3.13-.63,5.84-1.88,8.34-1.25,2.5-3.13,4.79-5.43,6.46-2.28,1.88-5.21,3.33-8.76,4.16-3.33,1.05-7.29,1.47-11.47,1.47-6.04,0-10.62-1.25-13.96-3.97-3.13-2.71-4.8-6.46-4.8-11.45,0-2.1.42-3.97,1.05-5.43.83-1.46,1.66-2.93,2.71-3.96,1.05-1.25,2.08-2.08,3.13-2.71,1.03-.63,1.88-1.25,2.5-1.67v-.2c-2.5-1.88-3.75-4.38-3.75-7.93,0-1.46.2-2.71.83-3.96.63-1.05,1.25-2.08,2.08-2.71.84-.63,1.47-1.25,2.3-1.67.83-.41,1.25-.83,1.67-.83v-.2c-2.93-1.25-5.22-3.55-7.09-6.26-1.88-2.93-2.72-6.68-2.72-11.06,0-3.11.42-6.04,1.47-8.34,1.03-2.5,2.5-4.38,4.16-6.04,1.67-1.67,3.75-2.71,6.05-3.55,2.28-.83,4.79-1.25,7.49-1.25s5.22.42,7.51,1.47h17.3l-1.25,7.71ZM900.97,482.33c-1.67,0-3.13-.22-4.38-.42-.63.42-1.46.83-2.08,1.46-.63.63-1.25,1.25-1.88,2.08-.63.84-1.05,1.67-1.47,2.72-.41,1.03-.63,2.28-.63,3.75,0,6.04,3.35,9.17,10.01,9.17,5.84,0,10.01-1.05,12.72-3.33,2.71-2.3,4.18-4.8,4.18-7.71,0-2.72-.84-4.8-2.72-5.85-1.66-1.24-4.16-1.66-7.09-1.66h-6.66v-.2ZM913.69,444.79c0-4.18-1.05-7.09-2.92-8.76-1.88-1.67-4.16-2.71-6.88-2.71s-5.21.83-7.09,2.71c-1.88,1.67-2.91,4.58-2.91,8.76s1.03,7.09,2.91,8.75c1.88,1.67,4.18,2.72,6.88,2.72s5.21-.84,7.09-2.72c1.88-1.66,2.92-4.58,2.92-8.75M976.44,427.07l-17.72,60.25c-2.08,6.88-4.58,12.31-7.51,15.85-2.91,3.55-7.29,5.43-12.92,5.43-1.25,0-2.08-.22-2.91-.42-.84-.2-1.25-.42-1.67-.63v-8.34c.42.2.83.42,1.46.63.63.2,1.47.2,2.5.2,3.33,0,6.05-1.03,7.71-3.13,1.88-2.08,3.35-5.41,4.6-9.79l.83-2.93-18.35-56.91h10.42l8.96,31.49c.84,3.33,1.67,6.24,2.3,9.17.63,2.71,1.25,5.41,1.25,7.51h.2c.22-2.3.63-4.8,1.05-7.51.63-2.71,1.25-5.84,2.3-8.96l8.12-31.7h9.39v-.2Z"/>
  <path d="M249.67,238.19c.2-2.3.41-4.6.41-6.88,0-1.25,0-2.71-.2-4.38,19.81-.2,37.31-14.6,37.31-31.07,0-8.34-5.41-14.8-8.54-18.55.63-.2,1.46-.2,2.08-.41,2.93,2.49,11.26,11.47,11.26,22.92,0,19.6-19.6,37.95-42.32,38.37M229.64,169.39c-.41-2.3-1.25-4.18-2.5-5.84,0-2.1.84-3.97,4.18-2.3-1.67,1.88-.42,5.01-.42,5.01,0,0,3.55-1.67,2.93-3.96,5.41,1.03,1.46,8.12-4.18,7.09M225.06,179.38c-.63-2.91-2.28-6.04-4.16-8.34-1.67-2.08-4.6-4.58-8.56-4.58-1.88,0-4.79.84-6.66,1.67-.63-1.25-2.08-4.38-2.08-5.84s2.49-2.93,7.09-2.93c10.22,0,16.46,4.58,16.46,12.52,0,2.91-1.03,5.41-2.08,7.49M251.54,312.19c1.25,0,1.88.22,2.5.42,2.91,8.13,14.38,23.36,14.8,23.98v.2h.2c2.71-.42,10.01-1.46,15.85-1.46h.2c.63,0,1.46,0,1.88.41.42.42.63,1.05.63,2.1,0,1.46-.63,3.96-1.46,5.21-2.08-2.3-5.43-3.33-10.84-3.33-1.67,0-3.55.41-4.58.83h-.42l-.42.2,3.13,3.13c4.8,4.8,8.96,8.96,8.96,11.89,0,1.66-1.66,3.96-3.13,4.79-.41-5.01-5.41-11.87-10.42-15.63l-.42-.42v1.88c0,1.25-.2,3.13-.2,5.01,0,9.79-1.05,11.26-4.38,11.26-.41,0-1.25-.22-1.88-.42,1.88-2.3,2.72-5.43,2.72-10.84v-4.58c0-2.3.2-3.97.41-5.21v-.84h-.63c-1.66-.2-4.58-.63-6.67-.63-4.8,0-8.13.42-10.43,2.71-1.46-1.24-3.11-3.33-3.11-4.79,0-2.08,1.24-2.08,2.91-2.08.83,0,1.67.2,2.71.2,2.1.2,5.22.83,11.47.83h.42l-.2-.41c-1.67-4.6-6.05-11.47-13.14-20.02.63-2.91,1.25-4.38,3.55-4.38M190.03,335.97l-.2.41h.42c6.46,0,9.59-.41,11.47-.83,1.03-.2,1.86-.2,2.71-.2,1.66,0,2.91.2,2.91,2.08,0,1.46-1.66,3.55-3.13,4.8-2.28-2.3-5.62-2.72-10.42-2.72-2.28,0-5.21.42-6.66.63h-.42v.84c.2,1.25.42,2.91.42,5.21v4.58c0,5.41.83,8.54,2.71,10.84-.42.2-1.25.42-1.88.42-3.33,0-4.38-1.47-4.38-11.26,0-1.88,0-3.75-.2-5.01v-1.88l-.42.42c-5.01,3.75-10.22,10.62-10.42,15.63-1.46-1.03-3.13-3.13-3.13-4.79,0-2.71,4.16-6.88,8.96-11.89l2.71-2.71.42-.42-.83-.2c-1.05-.2-2.93-.83-4.6-.83-5.41,0-8.75,1.03-10.84,3.33-.83-1.05-1.46-3.55-1.46-5.21,0-1.05.2-1.67.63-2.1.42-.41,1.25-.41,1.88-.41h.2c6.05,0,13.14,1.03,15.85,1.46h.22v-.2c.41-.63,11.87-15.85,14.8-23.98.63-.2,1.25-.41,2.5-.41,2.28,0,2.91,1.46,3.54,3.74-7.29,9.39-11.87,16.07-13.34,20.65M159.18,199.61c0-11.25,8.34-20.43,11.26-22.93.63.22,1.46.42,2.08.42-3.33,3.96-8.76,10.22-8.76,18.55,0,16.68,17.72,31.07,37.95,31.07-.22,1.46-.22,2.91-.22,4.37,0,2.5.22,4.8.42,6.88-22.73,0-42.74-18.35-42.74-38.36M311.79,234.64c10.22,16.05,18.13,15.85,30.23,15.85-10-7.71-16.68-17.52-19.81-22.51l-18.55-29.82c-1.88-9.18-6.67-17.93-13.75-24.19,2.5-.83,4.38-1.88,5.63-2.71-12.09,0-24.19-6.26-30.87-6.26-4.16,0-7.09,2.5-7.09,5.84.2,3.75,4.18,7.51,11.26,7.51,1.66,0,3.75-.2,6.04-.63,3.96,5.41,7.09,10.22,7.09,17.3,0,13.14-15.63,23.36-31.48,23.36h-2.71c-1.47-3.35-6.26-8.76-6.26-14.81,0-10.42,6.66-18.76,6.66-29.18,0-6.48-3.13-10.43-4.37-12.09,1.86-1.88,3.96-3.97,4.58-5.43-1.05.42-2.5.63-4.38.63-7.51,0-13.77-1.88-19.81-1.88-3.33,0-4.38,1.05-4.38,2.1,0,.41,0,.83.2.83-1.25-.42-2.5-.83-3.96-1.05-1.88-.41-3.75-.41-5.63-.41-7.29,0-9.79,3.11-9.79,5.62,0,2.3,1.67,6.26,3.75,9.39,2.91-1.46,6.26-2.5,7.92-2.5,3.96,0,7.31,3.75,9.18,8.13-2.5.41-3.13.41-5.85.41-7.09,0-11.87-2.49-12.92-2.49,0,0-.2,0-.2.2,0,1.05,2.08,3.54,6.04,5.01,5.22,1.88,13.14,2.71,14.39,2.91,0,.22-1.25,2.72-2.71,3.13-.22,0-.63.22-.84,0-5.41-1.03-7.09-1.46-13.97-4.16-.2,0-.41,0-.41.2,0,2.71,7.09,8.76,13.55,11.05-5.41,6.88-11.89,13.77-15,24.4h-2.72c-15.85,0-31.48-10.22-31.48-23.36,0-6.88,3.13-11.89,7.09-17.3,2.3.41,4.38.63,6.05.63,7.09,0,11.05-3.75,11.25-7.51,0-3.33-2.71-5.84-7.09-5.84-6.66,0-18.76,6.26-30.85,6.26,1.25.83,3.13,1.88,5.63,2.71-7.1,6.46-11.89,15-13.77,24.19l-18.55,29.82c-3.13,4.99-9.79,14.8-19.81,22.51,12.09,0,20.01.2,30.23-15.85l9.59-15.22c.63,2.08,1.67,3.96,2.5,5.84l-19.18,30.44c-3.13,5.01-9.79,14.8-19.81,22.51,12.09,0,20.01.22,30.23-15.85l16.47-26.27c1.25,1.25,2.5,2.5,3.96,3.75l-23.14,36.9c-3.13,5.01-9.79,14.8-19.81,22.51,12.09,0,20.02.22,30.24-15.85l22.51-36.06c1.46.83,2.91,1.88,4.58,2.71l-27.52,43.99c-3.13,5.01-9.79,14.8-19.81,22.51,12.09,0,20.01.22,30.23-15.83l28.36-45.24c1.66.63,3.33,1.25,4.99,1.88l-31.68,50.86c-3.13,5.01-9.81,14.8-19.81,22.53,12.09,0,20.01.2,30.23-15.85l34.2-54.63c.41,0,.63.22,1.03.22.84,2.91,1.67,5.62,1.67,8.54,0,17.1-11.26,32.32-24.81,43.99.83.41,2.3.41,3.75.41,2.71,0,4.58-.2,5.84-.41-3.13,7.09-9.79,16.26-13.34,21.06-4.38-.84-10.84-1.47-15-1.47-4.38,0-5.01,2.5-5.01,4.8,0,3.96,1.88,7.09,3.96,8.96.83-2.08,2.5-4.79,10.64-4.79h.83c-2.3,2.71-9.79,8.75-9.79,13.55,0,3.13,3.54,8.12,8.12,8.12-.2-1.03-.2-2.08-.2-2.71,0-3.96,3.55-8.54,6.46-11.67v1.88c0,9.39.84,13.55,6.68,13.55,2.91,0,4.79-1.66,5.63-2.08-3.75-3.55-3.97-6.26-3.97-11.47v-4.58c0-1.25,0-2.72-.2-3.96,2.08-.22,2.93-.22,4.58-.22,0,0,8.34-.63,10.42,3.75,2.3-2.08,5.63-5.01,5.63-8.34,0-2.08-1.03-4.58-5.41-4.58-1.67,0-6.68,1.03-11.05,1.03,1.24-2.49,6.24-10,10.83-15.63.63,2.08,1.67,4.38,3.97,6.26.41-3.55,2.28-14.6,7.92-21.06.63,4.38,1.46,8.96,1.46,18.35,0,23.14-5.62,40.02-17.3,43.35,1.47,2.72,4.8,5.01,8.13,5.01,4.38,0,6.66-4.79,8.96-9.37,1.25,3.33,4.58,11.67,8.13,11.67s6.88-8.34,8.13-11.67c2.28,4.58,4.79,9.37,8.96,9.37,3.33,0,6.67-2.5,8.12-5.01-11.87-3.33-17.3-20.21-17.3-43.35,0-9.6.84-13.97,1.46-18.35,5.43,6.46,7.51,17.51,7.93,21.06,2.28-1.88,3.33-4.18,4.16-6.26,4.38,5.41,9.59,12.92,10.84,15.63-4.37,0-9.37-1.03-11.05-1.03-4.38,0-5.41,2.5-5.41,4.58,0,3.33,3.33,6.26,5.62,8.34,2.1-4.38,10.43-3.75,10.43-3.75,1.66,0,2.5,0,4.58.22-.2,1.03-.2,2.71-.2,3.96v4.58c0,5.21-.22,7.92-3.97,11.47.63.42,2.72,2.08,5.63,2.08,5.84,0,6.68-4.16,6.68-13.55v-1.88c2.91,3.13,6.46,7.71,6.46,11.67,0,.63,0,1.67-.22,2.71,4.6,0,8.13-4.79,8.13-8.12,0-4.8-7.51-10.84-9.79-13.55h.83c8.13,0,9.81,2.71,10.64,4.79,2.08-1.88,3.96-5.01,3.96-8.96,0-2.3-.42-4.8-5.01-4.8-4.16,0-10.62.63-15,1.47-3.35-4.8-10.01-13.97-13.34-21.06,1.25.2,3.13.41,5.84.41,1.46,0,2.93-.2,3.75-.41-13.55-11.67-24.81-26.89-24.81-43.99,0-2.71.63-5.43,1.67-8.54.41,0,.63-.22,1.03-.22l34.2,54.63c10.22,16.05,18.13,15.85,30.23,15.85-10.01-7.73-16.68-17.52-19.81-22.53l-31.9-51.28c1.67-.63,3.55-1.25,5.21-1.88l28.36,45.24c10.22,16.05,18.13,15.85,30.23,15.85-10.01-7.71-16.47-17.3-19.81-22.53l-27.52-43.98c1.46-.84,3.13-1.67,4.58-2.72l22.51,36.08c10.22,16.05,18.15,15.85,30.24,15.85-10.01-7.71-16.47-17.32-19.81-22.53l-23.15-36.89c1.47-1.25,2.72-2.5,3.97-3.75l16.46,26.27c10.22,16.05,18.15,15.85,30.24,15.85-10.01-7.71-16.68-17.52-19.81-22.53l-18.98-30.43c1.05-1.88,1.88-3.75,2.5-5.84l9.59,15.63Z"/>
  <rect x="402.69" y="165" width="34.82" height="199.53"/>
  <rect class="cls-1" x="402.69" y="364.51" width="34.82" height="199.53"/>
  <rect class="cls-2" x="402.69" y="563.83" width="34.82" height="199.53"/>
</svg>