<?xml version="1.0" encoding="UTF-8"?>
<svg id="Layer_1" data-name="Layer 1" xmlns="http://www.w3.org/2000/svg" viewBox="0 0 1406.94 862.23">
  <defs>
    <style>
      .cls-1 {
        font-family: MyriadPro-Regular, 'Myriad Pro';
        font-size: 34.84px;
      }

      .cls-1, .cls-2 {
        fill: #221f1f;
      }

      .cls-2 {
        font-family: MyriadPro-Bold, 'Myriad Pro';
        font-size: 52.26px;
        font-weight: 700;
      }

      .cls-3 {
        fill: #5b9240;
      }

      .cls-4 {
        fill: #ce8c2a;
      }

      .cls-5 {
        fill: #2d3541;
      }

      .cls-6 {
        fill: #246bb4;
      }

      .cls-7 {
        fill: #85244a;
      }
    </style>
  </defs>
  <text class="cls-2" transform="translate(838.25 278.19)"><tspan x="0" y="0"> </tspan></text>
  <text class="cls-1" transform="translate(917.34 278.19)"><tspan x="0" y="0"> </tspan></text>
  <path class="cls-5" d="M226.02,547.7l-29.22-.1c-2.84,0-5.27,1.03-7.23,3.03-1.99,2.02-2.98,4.53-2.98,7.39l-.04,10.06c0,2.87.99,5.37,2.97,7.39,1.95,2.04,4.37,3.04,7.2,3.07l28.64.06-.03,8.96-28.14-.06.03-4.22-10.73-.04v4.73c0,2.91.99,5.38,2.97,7.42,1.94,2.04,4.38,3.06,7.2,3.06l29.22.1c2.76,0,5.21-1.02,7.19-3.01,2.01-2.05,3.04-4.54,3.04-7.41l.04-10.04c0-2.87-1.02-5.36-3.03-7.42-1.96-1.99-4.39-3.03-7.15-3.03l-28.73-.09.04-8.92,28.12.04v4.21s10.74.01,10.74.01l.04-4.74c0-2.87-1-5.37-3.01-7.39-1.96-2.01-4.38-3.06-7.16-3.06"/>
  <path class="cls-5" d="M288.41,550.91c-1.99,2.01-2.97,4.5-3,7.39l-.09,29.95c0,2.91,1,5.37,2.98,7.39,1.95,2.04,4.37,3.06,7.17,3.07l39.32.1v-10.96s-38.77-.1-38.77-.1l.07-28.92,38.77.13.07-10.97-39.31-.1c-2.82,0-5.24.99-7.23,3.01"/>
  <polygon class="cls-5" points="383.9 598.97 394.61 598.97 394.76 548.16 384.06 548.13 383.9 598.97"/>
  <polygon class="cls-5" points="442.66 599.11 488.43 599.26 488.47 588.28 453.47 588.17 453.5 579.2 481.68 579.28 481.72 568.3 453.5 568.26 453.56 559.3 488.56 559.4 488.59 548.44 442.81 548.28 442.66 599.11"/>
  <polygon class="cls-5" points="576.21 582.68 548.76 548.93 548.48 548.59 537.5 548.59 537.38 599.37 548.06 599.4 548.16 565.38 575.99 599.49 586.96 599.5 587.11 548.7 576.32 548.66 576.21 582.68"/>
  <path class="cls-5" d="M639.63,551.86c-1.96,2.01-2.97,4.5-3,7.38l-.07,29.96c-.01,2.9.99,5.37,2.93,7.41,1.99,2.02,4.41,3.06,7.25,3.06l39.29.1v-10.96s-38.75-.12-38.75-.12l.1-28.87,38.74.1.03-10.97-39.28-.13c-2.82,0-5.27,1.02-7.23,3.04"/>
  <polygon class="cls-5" points="735.18 599.93 780.97 600.05 780.98 589.1 746.01 588.97 746.03 580.01 774.2 580.09 774.24 569.12 746.04 569.03 746.07 560.1 781.04 560.17 781.08 549.21 735.32 549.1 735.18 599.93"/>
  <path class="cls-5" d="M935.4,549.82l-40.32-.12-.15,50.77h10.99l.04-16.66h29.37c2.9.03,5.35-1,7.45-3.03,2.01-2.04,3.06-4.51,3.09-7.36v-13.14c.01-2.85-.99-5.33-3.04-7.39-2.04-2.04-4.54-3.07-7.42-3.07M934.83,560.77l-.03,12.08-28.81-.07.03-12.06,28.81.06Z"/>
  <path class="cls-5" d="M1034.39,550.01l-29.89-.07c-2.9,0-5.4,1-7.39,3.01-2.04,2.01-3.06,4.5-3.07,7.39l-.12,40.38,10.97.04.04-16.4,28.83.07-.06,16.4h11.03s.09-40.37.09-40.37c.03-2.87-1-5.37-3.04-7.39-2.01-2.05-4.5-3.06-7.39-3.07M1033.81,560.98l-.03,12.47-28.81-.07.04-12.49,28.8.09Z"/>
  <path class="cls-5" d="M1136.08,550.36l-40.34-.12-.12,50.76,10.96.03.04-16.69h14.52l14.04,16.81h11.23s0-3.68,0-3.68l-10.91-13.1h.47c2.9,0,5.43-1.02,7.44-3.04,2.05-2.05,3.09-4.51,3.09-7.36l.04-13.14c.01-2.85-1-5.33-3.07-7.36-2.01-2.05-4.51-3.1-7.39-3.1M1135.49,561.32l-.06,12.08-28.78-.09.06-12.06,28.78.07Z"/>
  <polygon class="cls-5" points="1245.19 550.59 1233.9 550.59 1217.16 570.43 1207.1 570.41 1207.18 550.47 1196.09 550.44 1195.99 601.29 1207.06 601.29 1207.09 581.38 1217.1 581.42 1233.75 601.37 1245.06 601.39 1245.06 597.66 1227 575.94 1245.19 554.35 1245.19 550.59"/>
  <path class="cls-3" d="M477.56,738.51c0,3.39,2.81,6.2,6.26,6.2h83.01c3.43,0,6.23-2.81,6.23-6.2v-70.86c0-3.39-2.79-6.18-6.23-6.18h-83.01c-3.45,0-6.26,2.79-6.26,6.18v70.86Z"/>
  <path class="cls-4" d="M602.48,738.51c0,3.38,2.78,6.2,6.2,6.2h83.05c3.42,0,6.23-2.82,6.23-6.2v-70.86c0-3.39-2.81-6.18-6.23-6.18h-83.05c-3.42,0-6.2,2.79-6.2,6.18v70.86Z"/>
  <path class="cls-7" d="M727.48,738.51c0,3.38,2.76,6.2,6.23,6.2h82.99c3.41,0,6.23-2.82,6.23-6.2v-70.86c0-3.39-2.82-6.18-6.23-6.18h-82.99c-3.46,0-6.23,2.79-6.23,6.18v70.86Z"/>
  <path class="cls-6" d="M852.45,738.69c0,3.39,2.79,6.21,6.24,6.21h83.21c3.42,0,6.2-2.82,6.2-6.21v-71c0-3.42-2.78-6.21-6.2-6.21h-83.21c-3.45,0-6.24,2.79-6.24,6.21v71Z"/>
  <path class="cls-5" d="M1098.22,172.48c-3.46-10.65-13.26-17.78-24.45-17.78-10.38,0-19.67,6.17-23.68,15.69l-115.63,285.9c-.74,1.73-1.78,2.43-3.86,2.69h-155.59c-35.77,0-64.79-16.95-88.67-51.78l-13.66-20.4.07.04-22.91-34.26c46.13-9.08,77.94-50.19,77.94-101.49,0-57.71-39.96-98.02-97.22-98.02h-155.23v254.55l-109.56-235.69c-4.74-10.94-13.58-17.23-24.23-17.23s-19.94,6.5-24.33,17.3l-127.49,313.4h28.99l60.81-149.9h78.12c7.42,0,13.48-6.02,13.48-13.43s-6.05-13.5-13.48-13.5h-67.2l50.05-123.29c.44-1.12.77-1.12,1.06-1.12.17,0,.45,0,.77.73l133.98,292.46.16.32c2.02,4.85,6.71,7.84,12.22,7.84,7.04,0,12.92-5.54,13.42-12.62v-14.54l.12-278.39h128.35c42.07,0,70.32,28.57,70.32,71.13s-30.23,76.44-70.32,76.44h-31.3l22.02,31.04,42.81,63.74c27.4,39.96,62.44,61.28,104.19,63.35v.15h4.82c.29,0,.58.03.86.03.32.04.67.06,1.05.06h160.45l2.81-.09v-.03c6.02-.36,11.54-3.2,14.6-7.6,1.8-2.58,4.86-8.7,5.73-10.62l54.44-132.06h76.84c7.42,0,13.46-6.02,13.46-13.43s-6.04-13.5-13.46-13.5h-66.08l49.29-124.23c.38-.17.83-.2,1.27-.04l136.89,299.08,1.06,2.44h30.17l-144.26-313.33Z"/>
  <path class="cls-5" d="M777.85,181.63h162.67c7.42,0,13.46-6.05,13.46-13.49s-6.04-13.45-13.46-13.45h-162.67c-7.44,0-13.46,6.05-13.46,13.45s6.02,13.49,13.46,13.49"/>
  <path class="cls-5" d="M777.85,335.49h119.11c7.42,0,13.46-6.02,13.46-13.43s-6.04-13.5-13.46-13.5h-119.11c-7.44,0-13.46,6.07-13.46,13.5s6.02,13.43,13.46,13.43"/>
</svg>