<?xml version="1.0" encoding="UTF-8"?>
<svg id="Layer_1" data-name="Layer 1" xmlns="http://www.w3.org/2000/svg" viewBox="0 0 2597.42 862.23">
  <defs>
    <style>
      .cls-1 {
        fill: #c62026;
      }
    </style>
  </defs>
  <path class="cls-1" d="M378.05,258.43l-1.7-8.85h-59.16c-5.65,4.23-1.86,12.92-8.32,15.99-64.7-45.2-162.51-2.43-170.54,77.4-3.41,33.79-2.95,100.03-.17,134.26,3.14,38.33,30.12,74.23,65.56,88.38,26.95,10.75,64.23,14,90.36-.47,13.69-7.57,23.12-23.23,20.49,9.14-3.19,38.93-24.4,80.81-69.88,75.12-20.61-2.56-37.01-16.65-55.43-23.92-5.46.57-31.23,30.79-35.87,37.28-1.99,7.07,17.46,20.23,23.15,24.03,104.05,69.81,195.34-8.41,201.51-120.33,5.53-100.83-4.37-206.67.01-308.03M312.44,479.79c-17.08,55.23-107.05,46.26-112.71-10.62-2.81-28.29-2.53-86.57-.07-115.11,2.31-26.69,27.13-47.53,53.23-48.9,26.69-1.4,57.31,13.32,60.25,42.49,4.13,41.34-2.47,90.06-.7,132.14"/>
  <path class="cls-1" d="M820.35,517.77l-128.05-1.59c-4.09-3.73-2.24-7.38-.26-11.66,37.62-81.51,90.14-160.77,128.67-242.41,2.05-2.3,1.66-10.9-1.18-10.9h-222.81c-1.38,14.41-3.52,35.25-1.69,49.49.35,2.76.61,4.92,3.3,6.42l120.86,2.28c4.41,3.35-.2,11.39-2.26,15.82-36.82,78.51-89.56,155.23-125.95,233.8-1.27,2.71-6.71,14.65.07,14.65h230.9c2.49,0,2.23-45.45,1.69-49.49-.35-2.75-.6-4.93-3.3-6.42"/>
  <path class="cls-1" d="M459.8,251.21l-3.23,3.27v315.93c.36.77,2.94,3.26,3.23,3.26h55.09l2.43-2.43V253.64l-2.43-2.43h-55.09Z"/>
  <path class="cls-1" d="M502.25,149.47c-7.67,2.31-36.89,42.7-45.27,50.29-2.5,5.49-1.66,11.69,2.82,15.8h55.1l2.43-2.43v-59.96c0-4.22-11.5-4.79-15.08-3.71"/>
  <path class="cls-1" d="M978.34,327.37c3.84,0,12.49-9.87,13.43-14.12,1.67-7.51,1.19-36.45.41-45.1-.71-7.89-7.54-17.14-15.45-18.57-7.68-1.35-18.63,1-26.75,0,.52,1.6-1.62,3.52-1.62,4.06v71.29l2.43,2.43h27.55ZM958.08,257.69c8.24.26,20.72-2.42,24.7,6.9,1.86,4.37,2.2,44.18.39,48.18-3.75,8.29-17.7,6.53-25.09,6.49v-61.57Z"/>
  <path class="cls-1" d="M1220.54,520.97c-3.3.9-7.51,5.27-9.17,5.53-1.6.26-7.25-5.69-12.86-6.2-8.14-.73-10.57,5.63-17.59-.09l-2.46,2.43v51.85l4.02,2.43c8.92-1.85.38-38.01,5.54-44.7,5.5-7.09,19.62-1.82,19.62,6.62v35.65l4.02,2.43c8.47-1.72,1.21-36.44,4.86-43.77,3.59-7.17,18.67-3.3,18.67.83v38.9c0,.42,3.77,4.42,5.44,3.91.86-.15,4.28-3.62,4.28-3.91v-35.65c0-11.77-13.5-19.24-24.36-16.26"/>
  <path class="cls-1" d="M1315.18,520.29c-8.89-.84-15.85,5.94-17.61,5.95-1.09,0-7.09-5.49-11.51-5.98-7.57-.87-11.6,4.77-19.25-.06l-2.46,2.43v52.66h8.11v-39.7c0-8.06,21.06-8.06,21.06,0v39.7h8.11v-38.07c0-9.33,21.07-10.77,21.07-1.63v39.7h8.09v-42.93c0-4.53-10.71-11.61-15.6-12.08"/>
  <path class="cls-1" d="M2151.14,521.45c-2.74.99-6.55,4.82-8.02,5.04-1.6.26-7.25-5.69-12.86-6.18-8.13-.73-10.56,5.62-17.58-.1l-2.47,2.43v51.86l4.02,2.43c8.92-1.85.38-38.03,5.54-44.72,5.28-6.8,19.62-1.46,19.62,5.01v37.28l4.02,2.43c9.12-1.89-.29-38.33,6.53-45.35,6.14-6.3,18.61-.52,18.61,7.26v35.65l4.02,2.43c2.94-2.07,3.7-3.7,4.16-7.22.89-6.72.7-25.52-.22-32.35-1.76-12.92-13.04-20.3-25.36-15.91"/>
  <path class="cls-1" d="M2064.84,533.17l.16,7.96,14.42.15c-.64,9.42,3.68,23.87-9.02,25.84-5.37.83-13.16.39-15.7-5.15-1.72-3.77-2.18-44.21-.87-48.71,3.89-13.32,28.14-9.02,27.43,6.72l6.05.03c4.82-25.99-36.05-32.55-42.43-5.98-3.16,13.2-3.96,50.48,8.67,58.79,25.51,16.81,43.37-17.22,33.98-39.66h-22.69Z"/>
  <path class="cls-1" d="M1864,533.88l-22.61-.55v7.8l14.51.86c3.45,5.6,1.7,18.45-3.41,22.73-6.62,5.56-20.81,2.76-22.59-6.46-1.18-6.18-1-35.42-.12-42.19,1.09-8.25,9.33-11.48,16.97-10.36,9.95,1.46,8.27,11.23,12.22,13.75,10.9,6.91,5.94-18.53-7.57-21.58-10.3-2.36-24.1.74-28.42,11.41-2.07,5.09-2.18,45.39-.84,51.88,4.35,21.41,39.01,20.3,42.99-3.27.68-4.03,1.44-22.24-1.13-24.01"/>
  <path class="cls-1" d="M1464.23,325.51c13.61-8.03,10.99-24.01,10.55-37.6-1.35-4.1-30.28-6.24-23.17,5.47l15.29-.03c-.52,7.67,2.44,18.19-4.92,23.46-6.45,4.64-18.13,3.29-21.42-4.42-2.17-5.06-1.92-33.92-1.3-40.98.93-10.27,6.42-15.16,16.97-13.65,10.9,1.6,9.85,13.39,13.14,14.48,12.84-.41.26-18.83-6.14-21.41-11.69-4.71-29.76.77-31.9,14.26-1.24,7.77-.99,43.89,1.19,50.48,3.9,11.77,21.09,16.21,31.7,9.94"/>
  <polygon class="cls-1" points="2291.7 497.52 2291.7 531.54 2264.15 531.54 2264.15 497.52 2256.05 499.95 2256.05 575.3 2264.15 575.3 2264.15 539.65 2291.7 539.65 2291.7 575.3 2299.81 575.3 2299.81 497.52 2291.7 497.52"/>
  <path class="cls-1" d="M2205.81,523.45v-23.5l-8.09-2.43v77.78c3.99,2.4,6.9-1.19,9.87-.87,2.11.22,4.47,2.27,7.26,2.4,21,1.03,22.13-24.26,19.99-39.47-2.01-14.29-16.84-21.8-29.03-13.91M2220.89,566.89c-3.06.95-10.84.54-13.08-1.69-2.62-2.62-2.9-26.88-1.67-30.91,2.4-7.97,18.1-7.07,20.4,3.29,1.37,6.23,2.1,26.97-5.65,29.31"/>
  <path class="cls-1" d="M1578.71,523.45v-23.5l-8.11-2.43v77.78c3.99,2.4,6.91-1.19,9.87-.87,2.11.23,4.48,2.27,7.26,2.4,21,1.03,22.13-24.26,19.99-39.44-1.91-13.4-17.35-22.25-29.02-13.94M1599.42,559.57c-2.45,11.15-19.35,9.53-20.71,1.98-.66-3.55-.6-24.26.31-27.26.93-3.07,5.85-5.33,8.85-5.5,14.19-.74,13.64,21.35,11.55,30.78"/>
  <path class="cls-1" d="M1668.75,397.17c-9.75,1.37-16.82,14.58-9.81,16.08,2.11.47,14.68-15.03,22-5.81,6.56,13.42-7.74,10.45-15.89,13.58-16.55,6.33-12.34,28.68,2.05,31.03,8.98,1.48,13.85-3.2,17.75-3.07,3,.07,7.16,5.94,12.2,2.42l1.56-4.9-6.23-2.65c-1-19.08,5.72-50.82-23.63-46.67M1682.06,438.03c-2.49,8.45-18.69,8.56-19.25-1.27-.63-10.89,11.64-8.64,18.82-12.11l1.78,3.29c-1.63,3.11-.44,6.97-1.34,10.08"/>
  <path class="cls-1" d="M1864.73,272.18c-3.42.15-8.37,4.31-9.79,1.76l-.92-24.19-6.43.55c-1.64,1.14-1.38,3.17-1.59,4.89-1.7,14-1.46,50.66-.01,64.98.64,6.55,4.92,13.36,8.63,5.12,3.54-7.84-8.4-45.46,11.45-44.43,19.11,1,1.6,38.93,13.24,48.12l4.03-2.43v-42.13c0-5.75-12.63-12.52-18.61-12.25"/>
  <path class="cls-1" d="M1959.51,497.52h-38.08c-3.06,0-3.06,8.11,0,8.11h28.36c-2.37,12.92-33.25,56.61-32.51,65.63.13,1.43,1.54,4.05,2.53,4.05h39.7v-8.11h-30.79l31.93-64.26-1.13-5.41Z"/>
  <path class="cls-1" d="M954.84,567.2l31.68-66.4c-.87-.71-2.85-3.27-3.32-3.27h-35.65c-3.07,0-3.07,8.11,0,8.11h28.36c-2.98,12.33-33.22,57.1-32.51,65.62.13,1.43,1.54,4.06,2.53,4.06h38.88l2.31-2.59-1.5-5.52h-30.79Z"/>
  <path class="cls-1" d="M1449.32,441.37c-2.21-6.61.97-22.16-.33-30.44-2.88-18-34.24-19.62-35.43-.29,5.68,7.6,7.47-2.3,11.6-4.28,9.14-4.39,18.55,2.04,13.91,11.5-33.86-2.88-39.29,38.11-2.49,33.94,2.04-.25,4.03-2.79,6.56-2.55,2.17.22,10.54,6.5,12.41.45,1.57-5.09-5.21-5.31-6.23-8.32M1421.49,430.24c3.62-3.57,14.46-4.41,19.47-4.02,5.17,28.62-31.4,15.66-19.47,4.02"/>
  <path class="cls-1" d="M1932.74,324.76c1.92.1,6.84,4.82,9.63,4.15,2.56-.6,3.46-5.54,2.2-7.71-.67-1.14-4.55-.95-5.79-6.32-2.12-9.27,2.3-26.41-1.88-33.78-7.13-12.5-26.73-11.5-32.87,1.35-2.74,5.7,1.64,6.96,6.59,5.72,3.62-12.18,23.18-8.08,19.82,4.23-.81,2.95-24.36.71-28.55,13.81-3.52,11.03,5.35,21.94,16.49,22.73,6.23.41,11.69-4.32,14.36-4.19M1930.33,301.46l-1.57,15.43c-27.96,9.33-24.13-16.59,1.57-15.43"/>
  <path class="cls-1" d="M1499.51,566.99c-1.03-16.5,6.17-49.16-20.27-46.7-7.96.76-21.58,13.87-13.14,16.12,4.1,1.11,6.75-4.45,10.11-6.13,8.12-4.03,15.66.81,15.09,10.06-.47,1.85-12.97,2.72-16.01,3.67-22.09,6.75-15.09,33.98,6.59,32.51,3.75-.25,9.97-3.94,11.71-3.83,2.58.15,7.29,6.04,12.02,2.46,1.5-6.62-.55-6.62-6.11-8.16M1470.92,563.99c-6.74-11.29,13.04-14,20.27-14.6,6.05,13.97-14.12,24.88-20.27,14.6"/>
  <path class="cls-1" d="M1300.54,280.87c2.27.13,9.17,3.39,9.17,5.18v41.33c0,.54,7,3.64,8.09-2.43.96-5.28.71-36.77-.71-41.4-3.33-10.87-19.49-14.26-28.44-8.02v-25.93l-8.11,2.43v75.35l5.49,1.48c8.85-1.73-7.84-49.22,14.51-47.99"/>
  <path class="cls-1" d="M1148.8,525.57c-9.37-10.11-32.64-4.98-30.28,10.84,6.81,1.99,6.68-3.25,9.23-4.92,12.09-7.95,21.35,6.08,15.76,9.98-2.17,1.48-10.57,1.67-14.55,2.95-21.26,6.85-15.12,31.84,5.09,32.35,5.4.13,11.18-4.09,12.82-4.09,3.52,0,12.41,10.83,12.24-2.84-14.58-7.04-.17-33.34-10.3-44.28M1125.28,554.51l19.14-5.12c6.74,20.66-22.12,26.53-19.14,5.12"/>
  <path class="cls-1" d="M1660.55,552.62c6.88-12.33,1.89-31.96-14.65-32.48-19.51-.6-21.89,21.81-20.2,36.54,2.52,22.09,27.01,27.53,37.04,7.81l-5.27-5.33c-7.77,12.95-25.63,11.03-22.03-6.55h25.12ZM1654.87,544.53h-19.46c-4.21-21.44,23.55-20.42,19.46,0"/>
  <path class="cls-1" d="M1019.25,324.18c11.16,9.43,32.96,1.4,29.42-10.33-2.75-9.08-9.95,4.39-12.31,5.12-10.39,3.25-17.08-4.18-15.09-14.28h26.75c11.47-18.54-9.81-43.34-28.29-28.28-9.56,7.76-9.6,40.05-.48,47.76M1042.35,296.6h-21.09c-2.43-20.94,23.52-20.94,21.09,0"/>
  <path class="cls-1" d="M1368.83,311.11c-4.15.04-4.35,6.61-8.38,7.86-10.39,3.25-17.08-4.18-15.09-14.28h26.75c16.14-30.52-31.74-47.83-34.91-13.82-1.37,14.63-1.7,38.2,18.7,38.16,14.38-.03,22.66-18.02,12.94-17.91M1366.43,296.6h-21.09c-2.43-20.94,23.52-20.94,21.09,0"/>
  <path class="cls-1" d="M1385.07,552.62c5.02-7.92,3.71-22.11-4.13-28.28-11.7-9.24-29-1.86-30.76,12.85-1.73,14.61-2.2,38.01,17.48,39.34,9.37.64,23.71-7.48,15.76-17.42-3.1-.65-6.64,6.72-10.03,7.77-10.74,3.23-16.17-4.25-15.06-14.26h26.75ZM1377.4,531.94c2.46,2.44,1.96,9.2,1.99,12.59h-21.09c-3.9-11.74,11.28-20.32,19.09-12.59"/>
  <path class="cls-1" d="M1531.47,316.57l-5.27-5.33c-3.01,1.35-3.36,5.75-6.21,6.96-15.32,6.5-21.1-11.7-15.02-13.5h24.32c7.19-13.05,1.35-33.09-16.15-32.48-18.73.67-20.36,21.93-18.7,36.54,2.52,22.09,27.02,27.53,37.04,7.81M1523.62,296.6l-19.53-.74c-5.17-19.37,24.33-20.71,19.53.74"/>
  <path class="cls-1" d="M1623.41,328.98c9.87.95,26.18-10.68,14.48-17.8-9.17,12.95-24.91,11.21-23.53-6.49h26.73c10.58-18.74-7.01-41.94-27.33-28.94-12.6,8.05-12.17,51.11,9.65,53.23M1633.38,284.04c2.59,2.74,2.01,8.98,2.04,12.56h-21.07c-2.66-11.29,10.46-21.6,19.03-12.56"/>
  <path class="cls-1" d="M1101.72,272.42c-.87.15-4.28,3.62-4.28,3.9v38.9c-5.25,5.57-14.03,5.7-19.44,0v-38.9c0-.39-3.8-4.41-5.44-3.9-.79.13-4.13,3.35-4.28,3.9-1.63,5.7,0,29.24,0,37.27,0,8.63,11.83,16.04,20.05,15.37,3.1-.26,6.43-2.88,8.59-2.88,2.4-.01,4.05,3.04,5.97,2.75.92-.15,4.28-3.59,4.28-3.89v-48.62c0-.39-3.78-4.41-5.44-3.9"/>
  <path class="cls-1" d="M1786.11,435.96c-7.25-2.05-7.17,4-10.68,6.3-12.09,7.97-21.64-9.3-15.32-13.71,4.29-2.98,24.08,1.88,26.94-2.23,4.28-17-3.61-32.28-22.7-29.18-16.47,2.69-15.41,26.81-13.9,39.66,2.47,20.93,36.85,21.22,35.67-.84M1766.24,405.45c9.65-1.99,17.3,6.18,11.87,15.22l-18.85-.81c-2.31-5.86.63-13.1,6.97-14.41"/>
  <path class="cls-1" d="M1291.82,438.55l-4-2.66c-3.65.04-4.23,5.95-8.8,7.48-14.16,4.76-18.25-13.65-12.24-15.53h24.32c9.71-17.26-6.42-38.83-25.73-28.96-11.29,5.76-11.55,31.78-8.41,42.01,4.8,15.54,33.57,15.93,34.87-2.34M1272.03,405.45c11.54-2.39,17.22,11.47,11.85,15.22-2.12,1.47-17.26,1.4-18.83-.81-2.31-5.86.61-13.1,6.99-14.41"/>
  <path class="cls-1" d="M1629.15,451.92h6.04c2.66-1.63,2.26-31.04,1.67-36.03-2.95-24.9-18.85-17.2-37.09-18.83v55.1l7.87-2.66,1.72-41.63c29.8-16.49,12.31,39.44,19.79,44.06"/>
  <path class="cls-1" d="M1578.36,439.66c1.08-4.76,1.08-25.35,0-30.11-2.31-10.24-14.87-14.35-24.45-12.14-4.42,1.02-11.13,7.7-12.14,12.14-1.06,4.76-1.06,25.35,0,30.11,3.8,16.79,32.79,16.85,36.58,0M1567.32,441.57c-19.46,16.81-25.15-33.02-10.1-36.12,18.8-3.87,15.44,31.51,10.1,36.12"/>
  <path class="cls-1" d="M1773.26,310.39c-1.14-15.29-18.6-13.8-28.97-18.93v-7.57c8.75-5.81,14.6-2.43,23.15,1.35,8.85-9.78-8.02-13.69-15.98-12.85-5.34.57-14.41,4.57-15.54,10.46-4.77,24.87,30.12,15.69,29.05,29.16-.61,7.84-11.35,8.51-17.32,6.04-4.37-1.82-6.24-8.61-12.41-6.8l-2.39,3.71c6.78,19.38,42.07,17.87,40.41-4.58"/>
  <path class="cls-1" d="M1069.84,538.55l1-7.17c9.1-6.58,18.76,2.24,22.29,1.56,3.8-.76,4.63-4.71,2.17-7.38-9.23-10.08-34.88-6.45-33.62,11.66,1.32,18.92,35.67,7.23,27.24,27.98-12.95,7.76-17.51-4.8-27.81-6-6.84,1.99,3.38,12.5,6.55,14.28,13.4,7.44,33.91.93,31.32-16.68-2.33-15.83-27.85-13.14-29.15-18.25"/>
  <path class="cls-1" d="M1432.61,521.29c-10.52-3.29-14.29,3.65-23.21-1.09l-2.46,2.43v52.66h8.11v-39.7c0-7.19,21.07-9.01,21.07,1.63v38.07h8.09v-41.31c0-3.51-7.51-11.41-11.6-12.69"/>
  <path class="cls-1" d="M1186.68,409.09c4.32,6.08-.31,31.65,1.73,40.4l7.87,2.66v-44.57c0-.77-3.71-5.57-4.79-6.53-8.92-7.96-18.21-1.41-28.42-3.99l-3.35,1.53.8,52.87,6.59.7v-38.08c0-8.79,14.42-12.21,19.56-4.98"/>
  <path class="cls-1" d="M1032.62,522.64v38.88c0,6.81-21.07,8.59-21.07-1.62v-37.27c0-3.04-8.09-3.04-8.09,0v40.51c0,3.06,6.34,9.85,9.72,11.34,9.01,3.97,10.83.28,17.68-.04,3.2-.16,5.81,3.14,9.87.86v-52.67c0-3.04-8.11-3.04-8.11,0"/>
  <path class="cls-1" d="M1588.09,318.14c6.48-21.97-14.54-19.38-24.58-24.99-8.59-4.79-2.46-11.73,5.05-12.43,2.3-.22,22.82,8.29,17.54-1.98-4.8-9.33-32.66-9.17-34.87,5.82-3.3,22.34,29.25,13.49,29.27,27.43.09,7.12-8.34,8.02-13.82,7.23-7.55-1.11-9.04-9.65-17.13-8.05-2.98,19.69,33.94,22.6,38.55,6.96"/>
  <path class="cls-1" d="M1206.11,313.58c1.63-22.57-29.28-15.24-29.32-25.89-.06-10.22,18.93-5.62,24.39-3.25,8.28-9.11-10.36-13.02-18.28-11.79-14.47,2.28-20.45,18.37-7.61,26.3,4.95,3.06,32.22,6.65,21.03,17.93-10.42,10.51-25.36-9.53-29.19-5.7-2.01,21.55,37.44,23.43,38.99,2.4"/>
  <path class="cls-1" d="M1356.71,397.05v55.1l7.87-2.66c3.45-10.62-7.06-43.54,9.14-44.49,21.64-1.27,7.26,43.57,12.3,46.99,1.83,1.25,6.77.01,7.96-2.27v-37.27c0-.64-4.6-10.97-5.31-11.7-7.15-7.32-22.8-.76-31.96-3.7"/>
  <path class="cls-1" d="M1020.26,452.03l2.65-2.31v-50.23c0-3.04-8.11-3.04-8.11,0v37.27c0,9.68-21.07,8.45-21.07,0v-39.7c-4.34-.17-7.2-.74-8.11,4.05-1.08,5.79-.8,29.32-.04,35.7,2.43,20.4,20.65,13.66,34.68,15.24"/>
  <path class="cls-1" d="M1260.34,316.08c2.18-8.27-2.68-14.12-7-7-3.81,6.24-4.74,15.03-16.56,9.39-7.12-3.41-9.46-37.98,5.69-37.97,9.75.01,10.83,13.82,12.97,14.47,9.87,2.97,6.34-18.37-7.25-21.9-6.78-1.78-13.46-.76-18.55,4.21-8.35,8.13-8.72,38.39-.41,46.33,9.6,9.15,27.61,5.72,31.11-7.52"/>
  <path class="cls-1" d="M1820.15,306.31c2.42,15.31-19.3,18.55-21.14,4.15-.6-4.66-.6-23.55,2.12-26.41.7-.74,6.2-3.25,7.26-3.38,10.93-1.22,11.99,13.64,14.19,14.3,9.28,2.74,5.28-12.94.03-17.87-9.44-8.82-28.11-4.61-31.24,7.74-1.16,4.61-1.05,21.99-.44,27.18,1.64,13.69,16.66,21.39,28.41,13.74,7.44-4.85,15.89-20.56.82-19.46"/>
  <path class="cls-1" d="M1728,564.56l-.31-33.69,9.59-2.76.29-5.24-9.71-2.72-1.85-22.47-7.25,1.38-.61,20.16c-.45,1.59-8.82,1.72-8.13,6.52l8.13,5.2c.95,10.55-3.68,35.9,5.75,42.58,5.14,3.62,16.04,5.09,13.66-3.67-.64-2.46-8.24-1.38-9.58-5.28"/>
  <path class="cls-1" d="M949.98,405.15v42.94c0,5.72,9.72,5.7,9.72,0v-42.94l7.03.1.92-8.05-7.96-.15c.38-3.94-1-9.44.8-13.01.39-.8,17.91-9.9,4.89-11.35-12.6-1.4-16.43,14.55-15.63,24.14-8.89.61-8.61,8.47.23,8.31"/>
  <path class="cls-1" d="M1978.16,489.43c-7.39,1.95,2.46,10.22,3.77,12.41,15.45,25.86,13.26,59.39-6.29,82.37l4.12,4.12c20.55-14.87,23.63-47.94,17.48-71.02-1.64-6.1-10.94-30.04-19.08-27.88"/>
  <path class="cls-1" d="M2009.7,282.93c.26-1.57,11.71.17,11.29-6.4-2.36-4.48-6.64-4.64-11.25-4.25v-22.69l-7.38,1.53-.63,20.18c-18.2,7.16-.44,10.17,0,11.71,4.07,14.52-10,43.15,16.71,45.87l2.69-3.94-.79-2.47c-17.3-6.33-8.62-24.88-10.65-39.54"/>
  <path class="cls-1" d="M1133.03,282.07c1.88,11.32-4.28,35.26,4.83,42.99,12.91,10.94,20.61-5.2,3.55-7.61l-.13-35.36,9.42-1.91.29-5.24-9.71-2.72-.31-19.95-7.89-2.68v22.69l-6.52.76-1.67,4.92c.33,4.6,4.6,4,8.14,4.12"/>
  <path class="cls-1" d="M1807.24,493.48l-4.12-4.12c-24.43,18.99-25.41,65.44-9.21,90.31,3.17,4.86,6.68,9.75,13.27,8.59,1.72-6.58-3.84-8.22-6.21-12.41-15.06-26.79-13.29-58.53,6.27-82.37"/>
  <path class="cls-1" d="M1220.51,405.22c.09,10.83-4.34,53.38,16.84,46.73,10-3.14-4.15-8.95-5.54-10.2-4.6-4.07-4.31-34.05-1.59-35.86,2.9-1.94,11.09,1.27,9.81-6.39l-10.64-3.96c-2.62-3.58,2.58-24.29-4.73-22.77-7.38,5.44-2.88,16.23-4.15,24.22-11.12-.8-11.09,9.07,0,8.24"/>
  <path class="cls-1" d="M1474.92,396.99c-11.09-.81-11.12,9.05,0,8.24,1.4,1.34-1.59,31.26,1.31,38.42,2.4,5.97,13.29,12.43,18.15,5.97.15-7.28-6.77-5.11-9.72-7.93-3.78-3.62-.39-29.66-1.57-36.53l9.58-.15-.89-8.03-8.69.1c3.36-32.66-11.32-32.9-8.16-.09"/>
  <path class="cls-1" d="M1974.18,282.08c12.51.17,12.54-10.03,0-9.87l.12-11.87c1.41-4.12,9.5-1.05,9.55-6.69.03-7.48-15.92-5.5-17.77,6.58-.45,2.95.65,10.75-.32,11.85-.58.63-7.17.86-7.81,4.42-.89,5.11,7.7,5.12,8.06,5.5v44.57l4.02,2.43c2.05-1.63,3.51-3,4.03-5.7,1.19-6.24-1.35-39.79.13-41.21"/>
  <path class="cls-1" d="M1718.16,323.32c-.54-5.53-7.09-2.74-9.82-6.48v-64.82c-5.46-4.82-8.67-3.65-9.56,3.36-1.57,12.49-1.5,43.89.01,56.4.76,6.04,2.56,11.42,8.08,14.63,4.63,2.69,12.03,4.73,11.29-3.1"/>
  <path class="cls-1" d="M1681.46,320.73c-6.01-1.11-9.27-2.42-10.29-8.85-2.69-17.22,1.24-41.27.79-59.07-.47-5.01-6.11-4.26-8.99-.79v63.19c0,9.37,23.12,21.67,18.5,5.52"/>
  <path class="cls-1" d="M1314.08,396.94c-1,.2-2.62,3.43-2.74,4.16-1.95,11.8,0,33.86,0,46.99,0,5.7,9.72,5.72,9.72,0v-41.31c7.68-4.02,11.86,1.99,19.43,1.62.47-16.79-15.66-9.31-26.41-11.45"/>
  <path class="cls-1" d="M1716.45,443.23c0,5.37,15.82,14.58,17.84,4.86l-9.43-8.4c-2.97-18.13,2.91-44.14-.36-61.24-.51-2.71-1.96-4.09-4.03-5.7l-4.02,2.42v68.06Z"/>
  <polygon class="cls-1" points="1128.23 375.18 1128.23 452.14 1136.33 449.71 1136.33 374.36 1130.82 372.88 1128.23 375.18"/>
  <path class="cls-1" d="M1526.24,520.34l-2.62,2.3v52.67h8.09v-42.94l2.69-2.18c4.35-2.74,17.24,6.94,17.99-1.02.97-10.38-20.45-7.92-26.15-8.82"/>
  <polygon class="cls-1" points="1888.21 499.95 1888.21 575.3 1896.32 575.3 1896.32 497.52 1890.85 497.75 1888.21 499.95"/>
  <path class="cls-1" d="M1073.12,404.38c-7.52-12.11-17.75-4.77-29.15-7.32v52.67c0,3.06,8.11,3.06,8.11,0v-40.51c0-1.72,5.01-4.25,7.29-4.22,4.63.06,11.44,8.41,13.75-.61"/>
  <path class="cls-1" d="M1512.27,401.1c-1.3,6.91-1,37.82-.09,45.45.22,1.72-.04,3.77,1.6,4.9l6.59.7v-55.1c-4.35-.19-7.22-.76-8.11,4.05"/>
  <path class="cls-1" d="M1688.06,520.22l-4.02,2.42v52.67l4.89.89c1.79-1.28,2.75-2.81,3.16-4.99.87-4.82.84-42.81-.29-46.6-.58-1.94-2.34-3.1-3.74-4.38"/>
  <path class="cls-1" d="M992.1,383.38c4.66,2.3,8.24-6.27,6.37-8.86-4.07-5.62-15.18,4.5-6.37,8.86"/>
  <path class="cls-1" d="M1512.5,374.61c-1.88,3.04.01,11.12,5.43,9.47,7.23-2.2-.63-17.22-5.43-9.47"/>
  <polygon class="cls-1" points="1692 500.11 1690.6 498.25 1684.03 497.52 1684.03 507.26 1691.43 505.73 1692 500.11"/>
  <path class="cls-1" d="M1015.58,384.09c7.71-6.04-1.83-15.44-5.49-9.56-1.79,2.88,1.82,10.23,5.49,9.56"/>
</svg>