<?xml version="1.0" encoding="UTF-8"?>
<svg id="Layer_2" data-name="Layer 2" xmlns="http://www.w3.org/2000/svg" viewBox="0 0 240.98 54.7">
  <defs>
    <style>
      .cls-1 {
        fill: #081c23;
      }

      .cls-2 {
        fill: #38b750;
      }
    </style>
  </defs>
  <g id="Layer_1-2" data-name="Layer 1">
    <path class="cls-2" d="M220.33,52.08l-17.06-24.71c-.4-.57-.4-1.35,0-1.93l15.78-22.83c.75-1.09,0-2.61-1.28-2.61h-9.18c-.51,0-.99.26-1.29.7l-10.1,15.04c-.62.93-1.94.94-2.57,0l-10.24-15.05c-.29-.44-.77-.69-1.29-.69h-9.81c-1.28,0-2.02,1.51-1.29,2.6l15.87,23.28c.39.57.39,1.34,0,1.92l-16.8,24.28c-.75,1.09,0,2.61,1.28,2.61h9.92c.52,0,1.01-.27,1.3-.72l10.67-16.32c.62-.95,1.96-.96,2.59,0l10.84,16.33c.29.44.78.71,1.29.71h10.08c1.29,0,2.03-1.52,1.28-2.61h0Z"/>
    <g>
      <path class="cls-1" d="M179.11,22.87l-.67-.99h0l-2.88-4.23L164.03.69c-.29-.44-.77-.69-1.28-.69h-9.81c-1.29,0-2.03,1.52-1.29,2.6l15.86,23.28c.4.57.4,1.34,0,1.92l-12.46,18.02L135.8.97c-.25-.59-.81-.97-1.44-.97h-9.92c-.62,0-1.18.39-1.44.98l-21.85,51.4h0c-.46,1.09.29,2.32,1.44,2.32h8.94c.64,0,1.21-.4,1.46-1.02l4.26-10.7h24.24l4.26,10.7c.25.61.82,1.02,1.46,1.02h4.79s0,0,0,0h9.91c.52,0,1.01-.27,1.3-.72l.14-.21,11.82-18.08,2.74-4.2,1.2-1.83,1.64-2.51c.38-.57.37-1.32-.01-1.89l-1.63-2.39ZM121.07,33.37l8.3-20.85,8.3,20.85h-16.59Z"/>
      <path class="cls-1" d="M240.68,52.08l-16.79-24.28c-.4-.57-.4-1.34,0-1.92l15.86-23.28c.74-1.09,0-2.6-1.28-2.6h-9.81c-.51,0-.99.26-1.29.69l-11.52,16.95-2.88,4.23h0l-.67.99-1.63,2.39c-.38.57-.39,1.32-.01,1.89l1.64,2.51,1.2,1.83,2.74,4.2,11.83,18.08.14.21c.29.45.78.72,1.3.72h9.91c1.29,0,2.03-1.52,1.28-2.61Z"/>
      <path class="cls-1" d="M44.03,0H1.57C.7,0,0,.74,0,1.64v7.03c0,.91.7,1.64,1.57,1.64h13.6c.87,0,1.57.74,1.57,1.64v41.08h0c0,.9.7,1.64,1.57,1.64h8.96c.87,0,1.57-.74,1.57-1.64V11.95c0-.91.7-1.64,1.57-1.64h13.6c.87,0,1.57-.74,1.57-1.64V1.64c0-.91-.71-1.64-1.57-1.64Z"/>
      <path class="cls-1" d="M94.72,30.35c1.84-2.94,2.76-6.52,2.76-10.58s-.92-7.58-2.76-10.55c-1.85-2.97-4.46-5.25-7.85-6.84C83.48.79,79.44,0,74.76,0h-21.08c-.87,0-1.57.74-1.57,1.64v51.4h0c0,.91.7,1.64,1.57,1.64h9.03c.87,0,1.57-.74,1.57-1.64v-13.66h10.46c.18,0,.35,0,.53-.01l9.69,14.62c.29.44.77.71,1.29.71h9.18c1.27,0,2.02-1.49,1.29-2.59l-9.95-15s.05-.02.08-.03c3.39-1.54,6.01-3.77,7.85-6.72ZM82.45,12.78c1.89,1.64,2.84,3.97,2.84,6.99s-.94,5.37-2.84,7.03c-1.9,1.67-4.68,2.5-8.37,2.5h-9.79V10.32h9.79c3.69,0,6.48.82,8.37,2.46Z"/>
    </g>
  </g>
</svg>