<?xml version="1.0" encoding="UTF-8"?>
<svg id="Layer_1" xmlns="http://www.w3.org/2000/svg" version="1.1" viewBox="0 0 59.6 36">
  <!-- Generator: Adobe Illustrator 30.1.0, SVG Export Plug-In . SVG Version: 2.1.1 Build 109)  -->
  <defs>
    <style>
      .st0 {
        fill: #081c23;
      }

      .st1 {
        fill: #38b750;
      }
    </style>
  </defs>
  <path class="st1" d="M46,34.3l-11.2-16.3c-.3-.4-.3-.9,0-1.3L45.2,1.7c.5-.7,0-1.7-.8-1.7h-6c-.3,0-.7.2-.9.5l-6.6,9.9c-.4.6-1.3.6-1.7,0L22.4.5c-.2-.3-.5-.5-.8-.5h-6.5c-.8,0-1.3,1-.8,1.7l10.4,15.3c.3.4.3.9,0,1.3l-11.1,16c-.5.7,0,1.7.8,1.7h6.5c.3,0,.7-.2.9-.5l7-10.7c.4-.6,1.3-.6,1.7,0l7.1,10.7c.2.3.5.5.9.5h6.6c.8,0,1.3-1,.8-1.7h0Z"/>
  <path class="st0" d="M20,16.6c.3.4.3.9,0,1.2l-1.1,1.7-.8,1.2-1.8,2.8-7.8,11.9h0c-.2.4-.5.6-.9.6H1c-.8,0-1.3-1-.8-1.7l11-16c.3-.4.3-.9,0-1.3L.8,1.7C.3,1,.8,0,1.7,0h6.5c.3,0,.7.2.8.5l7.6,11.2,1.9,2.8h0l.4.7,1.1,1.6Z"/>
  <path class="st0" d="M39.7,16.6c-.3.4-.3.9,0,1.2l1.1,1.7.8,1.2,1.8,2.8,7.8,11.9h0c.2.4.5.6.9.6h6.5c.8,0,1.3-1,.8-1.7l-11-16c-.3-.4-.3-.9,0-1.3L58.8,1.7c.5-.7,0-1.7-.8-1.7h-6.5c-.3,0-.7.2-.8.5l-7.6,11.2-1.9,2.8h0l-.4.7-1.1,1.6Z"/>
</svg>